# Blender v2.76 (sub 0) OBJ File: ''
# www.blender.org
o Sphere
v 0.000000 0.353554 0.853554
v 0.000000 0.191342 0.961940
v 0.135299 0.135299 0.961940
v 0.250000 0.250000 0.853554
v 0.000000 0.191342 0.038060
v 0.000000 0.353554 0.146446
v 0.250000 0.250000 0.146446
v 0.135299 0.135299 0.038060
v 0.000000 0.461940 0.308658
v 0.000000 0.500000 0.500000
v 0.353554 0.353554 0.500000
v 0.326640 0.326641 0.308658
v 0.000000 0.461940 0.691342
v 0.326640 0.326641 0.691342
v 0.000000 0.000000 1.000000
v 0.000000 0.000000 0.000000
v 0.500000 0.000000 0.500000
v 0.461940 0.000000 0.308658
v 0.353554 0.000000 0.853554
v 0.461940 0.000000 0.691342
v 0.191342 0.000000 0.961940
v 0.191342 0.000000 0.038060
v 0.353554 0.000000 0.146446
v 0.135299 -0.135299 0.038060
v 0.326640 -0.326640 0.308658
v 0.250000 -0.250000 0.146446
v 0.326640 -0.326640 0.691342
v 0.353554 -0.353553 0.500000
v 0.135299 -0.135299 0.961940
v 0.250000 -0.250000 0.853554
v 0.000000 -0.461940 0.691342
v 0.000000 -0.500000 0.500000
v 0.000000 -0.191342 0.961940
v 0.000000 -0.353553 0.853554
v 0.000000 -0.353553 0.146446
v 0.000000 -0.191342 0.038060
v 0.000000 -0.461940 0.308658
v -0.250000 -0.250000 0.146446
v -0.135299 -0.135299 0.038060
v -0.353554 -0.353553 0.500000
v -0.326640 -0.326640 0.308658
v -0.250000 -0.250000 0.853554
v -0.326640 -0.326640 0.691342
v -0.135299 -0.135299 0.961940
v -0.353554 0.000000 0.853554
v -0.461940 0.000000 0.691342
v -0.191342 0.000000 0.961940
v -0.191342 0.000000 0.038060
v -0.461940 0.000000 0.308658
v -0.353554 0.000000 0.146446
v -0.500000 0.000000 0.500000
v -0.135299 0.135299 0.038060
v -0.326640 0.326640 0.308658
v -0.250000 0.250000 0.146446
v -0.326640 0.326640 0.691342
v -0.353554 0.353554 0.500000
v -0.135299 0.135299 0.961940
v -0.250000 0.250000 0.853554
vt 0.000000 0.000000
vt 1.000000 0.000000
vt 1.000000 1.000000
vt 0.000000 1.000000
vn 0.224300 0.541400 0.810300
vn 0.224300 0.541400 -0.810300
vn 0.376400 0.908700 -0.180700
vn 0.325600 0.786200 0.525300
vn 0.080500 0.194500 0.977600
vn 0.080500 0.194500 -0.977600
vn 0.325600 0.786200 -0.525300
vn 0.376400 0.908700 0.180700
vn 0.908700 0.376400 -0.180700
vn 0.786200 0.325600 0.525300
vn 0.194500 0.080500 0.977600
vn 0.194500 0.080500 -0.977600
vn 0.786200 0.325600 -0.525300
vn 0.908700 0.376400 0.180700
vn 0.541400 0.224300 0.810300
vn 0.541400 0.224300 -0.810300
vn 0.194500 -0.080500 -0.977600
vn 0.786200 -0.325600 -0.525300
vn 0.908700 -0.376400 0.180700
vn 0.541400 -0.224300 0.810300
vn 0.541400 -0.224300 -0.810300
vn 0.908700 -0.376400 -0.180700
vn 0.786200 -0.325600 0.525300
vn 0.194500 -0.080500 0.977600
vn 0.376400 -0.908700 0.180700
vn 0.224300 -0.541400 0.810300
vn 0.224300 -0.541400 -0.810300
vn 0.376400 -0.908700 -0.180700
vn 0.325600 -0.786200 0.525300
vn 0.080500 -0.194500 0.977600
vn 0.080500 -0.194500 -0.977600
vn 0.325600 -0.786200 -0.525300
vn -0.224300 -0.541400 -0.810300
vn -0.376400 -0.908700 -0.180700
vn -0.325600 -0.786200 0.525300
vn -0.080500 -0.194500 0.977600
vn -0.080500 -0.194500 -0.977600
vn -0.325600 -0.786200 -0.525300
vn -0.376400 -0.908700 0.180700
vn -0.224300 -0.541400 0.810300
vn -0.786200 -0.325600 0.525300
vn -0.194500 -0.080500 0.977600
vn -0.194500 -0.080500 -0.977600
vn -0.786200 -0.325600 -0.525300
vn -0.908700 -0.376400 0.180700
vn -0.541400 -0.224300 0.810300
vn -0.541400 -0.224300 -0.810300
vn -0.908700 -0.376400 -0.180700
vn -0.194500 0.080500 -0.977600
vn -0.786200 0.325600 -0.525300
vn -0.908700 0.376400 0.180700
vn -0.541400 0.224300 0.810300
vn -0.541400 0.224300 -0.810300
vn -0.908700 0.376400 -0.180700
vn -0.786200 0.325600 0.525300
vn -0.194500 0.080500 0.977600
vn -0.224300 0.541400 0.810300
vn -0.224300 0.541400 -0.810300
vn -0.376400 0.908700 -0.180700
vn -0.325600 0.786200 0.525300
vn -0.080500 0.194500 0.977600
vn -0.080500 0.194500 -0.977600
vn -0.325600 0.786200 -0.525300
vn -0.376400 0.908700 0.180700
s 1
f 1/1/1 2/2/1 3/3/1 4/4/1
f 5/1/2 6/2/2 7/3/2 8/4/2
f 9/1/3 10/2/3 11/3/3 12/4/3
f 13/1/4 1/2/4 4/3/4 14/4/4
f 2/1/5 15/2/5 3/3/5
f 16/1/6 5/2/6 8/3/6
f 6/1/7 9/2/7 12/3/7 7/4/7
f 10/1/8 13/2/8 14/3/8 11/4/8
f 12/1/9 11/2/9 17/3/9 18/4/9
f 14/1/10 4/2/10 19/3/10 20/4/10
f 3/1/11 15/2/11 21/3/11
f 16/1/12 8/2/12 22/3/12
f 7/1/13 12/2/13 18/3/13 23/4/13
f 11/1/14 14/2/14 20/3/14 17/4/14
f 4/1/15 3/2/15 21/3/15 19/4/15
f 8/1/16 7/2/16 23/3/16 22/4/16
f 16/1/17 22/2/17 24/3/17
f 23/1/18 18/2/18 25/3/18 26/4/18
f 17/1/19 20/2/19 27/3/19 28/4/19
f 19/1/20 21/2/20 29/3/20 30/4/20
f 22/1/21 23/2/21 26/3/21 24/4/21
f 18/1/22 17/2/22 28/3/22 25/4/22
f 20/1/23 19/2/23 30/3/23 27/4/23
f 21/1/24 15/2/24 29/3/24
f 28/1/25 27/2/25 31/3/25 32/4/25
f 30/1/26 29/2/26 33/3/26 34/4/26
f 24/1/27 26/2/27 35/3/27 36/4/27
f 25/1/28 28/2/28 32/3/28 37/4/28
f 27/1/29 30/2/29 34/3/29 31/4/29
f 29/1/30 15/2/30 33/3/30
f 16/1/31 24/2/31 36/3/31
f 26/1/32 25/2/32 37/3/32 35/4/32
f 36/1/33 35/2/33 38/3/33 39/4/33
f 37/1/34 32/2/34 40/3/34 41/4/34
f 31/1/35 34/2/35 42/3/35 43/4/35
f 33/1/36 15/2/36 44/3/36
f 16/1/37 36/2/37 39/3/37
f 35/1/38 37/2/38 41/3/38 38/4/38
f 32/1/39 31/2/39 43/3/39 40/4/39
f 34/1/40 33/2/40 44/3/40 42/4/40
f 43/1/41 42/2/41 45/3/41 46/4/41
f 44/1/42 15/2/42 47/3/42
f 16/1/43 39/2/43 48/3/43
f 38/1/44 41/2/44 49/3/44 50/4/44
f 40/1/45 43/2/45 46/3/45 51/4/45
f 42/1/46 44/2/46 47/3/46 45/4/46
f 39/1/47 38/2/47 50/3/47 48/4/47
f 41/1/48 40/2/48 51/3/48 49/4/48
f 16/1/49 48/2/49 52/3/49
f 50/1/50 49/2/50 53/3/50 54/4/50
f 51/1/51 46/2/51 55/3/51 56/4/51
f 45/1/52 47/2/52 57/3/52 58/4/52
f 48/1/53 50/2/53 54/3/53 52/4/53
f 49/1/54 51/2/54 56/3/54 53/4/54
f 46/1/55 45/2/55 58/3/55 55/4/55
f 47/1/56 15/2/56 57/3/56
f 58/1/57 57/2/57 2/3/57 1/4/57
f 52/1/58 54/2/58 6/3/58 5/4/58
f 53/1/59 56/2/59 10/3/59 9/4/59
f 55/1/60 58/2/60 1/3/60 13/4/60
f 57/1/61 15/2/61 2/3/61
f 16/1/62 52/2/62 5/3/62
f 54/1/63 53/2/63 9/3/63 6/4/63
f 56/1/64 55/2/64 13/3/64 10/4/64
